ffmpeg started on 2016-12-07 at 09:42:18
Report written to "Output/x264/results/ffmpeg/crowd_run_2160p50slow4500k.log"
Command line:
Tools/ffmpeg/ffmpeg -benchmark -y -i Input/y4m/crowd_run_2160p50.y4m -c:v libx264 -preset slow -b:v 4500k -an Output/x264/encoded/crowd_run_2160p50slow4500k.mkv
ffmpeg version N-82227-gdb23fde Copyright (c) 2000-2016 the FFmpeg developers
  built with gcc 5.4.0 (Ubuntu 5.4.0-6ubuntu1~16.04.2) 20160609
  configuration: --prefix=/home/jaroslav/ffmpeg_build --pkg-config-flags=--static --extra-cflags=-I/home/jaroslav/ffmpeg_build/include --extra-ldflags=-L/home/jaroslav/ffmpeg_build/lib --bindir=/home/jaroslav/bin --enable-gpl --enable-libass --enable-libfdk-aac --enable-libfreetype --enable-libmp3lame --enable-libopus --enable-libtheora --enable-libvorbis --enable-libvpx --enable-libx264 --enable-libx265 --enable-nvenc --enable-libmfx --enable-libxvid --enable-libgsm --enable-libopencore-amrnb --enable-version3 --enable-nonfree
  libavutil      55. 35.100 / 55. 35.100
  libavcodec     57. 66.101 / 57. 66.101
  libavformat    57. 57.100 / 57. 57.100
  libavdevice    57.  2.100 / 57.  2.100
  libavfilter     6. 66.100 /  6. 66.100
  libswscale      4.  3.100 /  4.  3.100
  libswresample   2.  4.100 /  2.  4.100
  libpostproc    54.  2.100 / 54.  2.100
Input #0, yuv4mpegpipe, from 'Input/y4m/crowd_run_2160p50.y4m':
  Duration: 00:00:10.00, start: 0.000000, bitrate: 4976642 kb/s
    Stream #0:0: Video: rawvideo (I420 / 0x30323449), yuv420p(progressive), 3840x2160, SAR 1:1 DAR 16:9, 50 fps, 50 tbr, 50 tbn, 50 tbc
[libx264 @ 0x2a9f1c0] using SAR=1/1
[libx264 @ 0x2a9f1c0] using cpu capabilities: MMX2 SSE2Fast SSSE3 SSE4.2 AVX FMA3 AVX2 LZCNT BMI2
[libx264 @ 0x2a9f1c0] profile High, level 5.2
[libx264 @ 0x2a9f1c0] 264 - core 148 - H.264/MPEG-4 AVC codec - Copyleft 2003-2016 - http://www.videolan.org/x264.html - options: cabac=1 ref=5 deblock=1:0:0 analyse=0x3:0x113 me=hex subme=8 psy=1 psy_rd=1.00:0.00 mixed_ref=1 me_range=16 chroma_me=1 trellis=2 8x8dct=1 cqm=0 deadzone=21,11 fast_pskip=1 chroma_qp_offset=-2 threads=6 lookahead_threads=1 sliced_threads=0 nr=0 decimate=1 interlaced=0 bluray_compat=0 constrained_intra=0 bframes=3 b_pyramid=2 b_adapt=1 b_bias=0 direct=3 weightb=1 open_gop=0 weightp=2 keyint=250 keyint_min=25 scenecut=40 intra_refresh=0 rc_lookahead=50 rc=abr mbtree=1 bitrate=4500 ratetol=1.0 qcomp=0.60 qpmin=0 qpmax=69 qpstep=4 ip_ratio=1.40 aq=1:1.00
Output #0, matroska, to 'Output/x264/encoded/crowd_run_2160p50slow4500k.mkv':
  Metadata:
    encoder         : Lavf57.57.100
    Stream #0:0: Video: h264 (libx264) (H264 / 0x34363248), yuv420p, 3840x2160 [SAR 1:1 DAR 16:9], q=-1--1, 4500 kb/s, 50 fps, 1k tbn, 50 tbc
    Metadata:
      encoder         : Lavc57.66.101 libx264
    Side data:
      cpb: bitrate max/min/avg: 0/0/4500000 buffer size: 0 vbv_delay: -1
Stream mapping:
  Stream #0:0 -> #0:0 (rawvideo (native) -> h264 (libx264))
Press [q] to stop, [?] for help
frame=   10 fps=0.0 q=0.0 size=       0kB time=00:00:00.00 bitrate=N/A speed=   0x    frame=   16 fps= 14 q=0.0 size=       0kB time=00:00:00.00 bitrate=N/A speed=   0x    frame=   29 fps= 18 q=0.0 size=       0kB time=00:00:00.00 bitrate=N/A speed=   0x    frame=   39 fps= 18 q=0.0 size=       0kB time=00:00:00.00 bitrate=N/A speed=   0x    frame=   44 fps= 16 q=0.0 size=       0kB time=00:00:00.00 bitrate=N/A speed=   0x    frame=   52 fps= 16 q=0.0 size=       0kB time=00:00:00.00 bitrate=N/A speed=   0x    frame=   57 fps=9.4 q=0.0 size=       0kB time=00:00:00.00 bitrate=N/A speed=   0x    frame=   62 fps=9.2 q=42.0 size=       1kB time=-00:00:00.01 bitrate=N/A speed=N/A    frame=   67 fps=8.9 q=44.0 size=       1kB time=00:00:00.08 bitrate=  72.5kbits/s speed=0.0107x    frame=   72 fps=8.9 q=56.0 size=       1kB time=00:00:00.18 bitrate=  32.4kbits/s speed=0.0224x    frame=   76 fps=8.8 q=57.0 size=       1kB time=00:00:00.26 bitrate=  22.5kbits/s speed=0.0303x    frame=   83 fps=8.9 q=56.0 size=       1kB time=00:00:00.40 bitrate=  14.6kbits/s speed=0.0431x    frame=   91 fps=9.1 q=56.0 size=       1kB time=00:00:00.56 bitrate=  10.5kbits/s speed=0.056x    frame=   99 fps=9.2 q=55.0 size=       1kB time=00:00:00.72 bitrate=   8.1kbits/s speed=0.0671x    frame=  106 fps=9.4 q=55.0 size=       1kB time=00:00:00.86 bitrate=   6.8kbits/s speed=0.0761x    frame=  110 fps=9.2 q=55.0 size=       1kB time=00:00:00.94 bitrate=   6.2kbits/s speed=0.0784x    frame=  116 fps=9.2 q=54.0 size=       1kB time=00:00:01.06 bitrate=   5.5kbits/s speed=0.0845x    frame=  123 fps=9.4 q=54.0 size=       1kB time=00:00:01.20 bitrate=   4.9kbits/s speed=0.0919x    frame=  127 fps=9.3 q=54.0 size=       1kB time=00:00:01.28 bitrate=   4.6kbits/s speed=0.0943x    frame=  131 fps=9.3 q=54.0 size=       1kB time=00:00:01.36 bitrate=   4.3kbits/s speed=0.0966x    frame=  138 fps=9.4 q=54.0 size=       1kB time=00:00:01.50 bitrate=   3.9kbits/s speed=0.103x    frame=  144 fps=9.5 q=53.0 size=       1kB time=00:00:01.62 bitrate=   3.6kbits/s speed=0.106x    frame=  150 fps=9.5 q=53.0 size=       1kB time=00:00:01.74 bitrate=   3.4kbits/s speed=0.11x    frame=  156 fps=9.5 q=53.0 size=       1kB time=00:00:01.86 bitrate=   3.2kbits/s speed=0.113x    frame=  161 fps=9.5 q=53.0 size=       1kB time=00:00:01.96 bitrate=   3.0kbits/s speed=0.116x    frame=  167 fps=9.5 q=53.0 size=       1kB time=00:00:02.08 bitrate=   2.8kbits/s speed=0.118x    frame=  175 fps=9.5 q=53.0 size=       1kB time=00:00:02.24 bitrate=   2.6kbits/s speed=0.122x    frame=  182 fps=9.6 q=53.0 size=       1kB time=00:00:02.38 bitrate=   2.5kbits/s speed=0.126x    frame=  188 fps=9.6 q=53.0 size=       1kB time=00:00:02.50 bitrate=   2.3kbits/s speed=0.128x    frame=  195 fps=9.7 q=53.0 size=       1kB time=00:00:02.64 bitrate=   2.2kbits/s speed=0.131x    frame=  199 fps=9.6 q=53.0 size=       1kB time=00:00:02.72 bitrate=   2.2kbits/s speed=0.131x    frame=  206 fps=9.7 q=53.0 size=       1kB time=00:00:02.86 bitrate=   2.1kbits/s speed=0.135x    frame=  212 fps=9.7 q=53.0 size=       1kB time=00:00:02.98 bitrate=   2.0kbits/s speed=0.136x    frame=  216 fps=9.6 q=52.0 size=       1kB time=00:00:03.06 bitrate=   1.9kbits/s speed=0.137x    frame=  223 fps=9.7 q=52.0 size=       1kB time=00:00:03.20 bitrate=   1.8kbits/s speed=0.139x    frame=  230 fps=9.7 q=52.0 size=       1kB time=00:00:03.34 bitrate=   1.8kbits/s speed=0.141x    frame=  236 fps=9.7 q=52.0 size=       1kB time=00:00:03.46 bitrate=   1.7kbits/s speed=0.143x    frame=  243 fps=9.7 q=52.0 size=       1kB time=00:00:03.60 bitrate=   1.6kbits/s speed=0.144x    frame=  250 fps=9.8 q=52.0 size=       1kB time=00:00:03.74 bitrate=   1.6kbits/s speed=0.147x    frame=  253 fps=9.7 q=52.0 size=       1kB time=00:00:03.80 bitrate=   1.5kbits/s speed=0.146x    frame=  259 fps=9.7 q=52.0 size=       1kB time=00:00:03.92 bitrate=   1.5kbits/s speed=0.147x    frame=  266 fps=9.8 q=52.0 size=       1kB time=00:00:04.06 bitrate=   1.4kbits/s speed=0.149x    frame=  273 fps=9.8 q=52.0 size=       1kB time=00:00:04.20 bitrate=   1.4kbits/s speed=0.151x    frame=  278 fps=9.8 q=52.0 size=       1kB time=00:00:04.30 bitrate=   1.4kbits/s speed=0.151x    frame=  283 fps=9.7 q=52.0 size=       1kB time=00:00:04.40 bitrate=   1.3kbits/s speed=0.151x    frame=  288 fps=9.7 q=52.0 size=       1kB time=00:00:04.50 bitrate=   1.3kbits/s speed=0.152x    frame=  295 fps=9.8 q=52.0 size=       1kB time=00:00:04.64 bitrate=   1.3kbits/s speed=0.154x    frame=  300 fps=9.8 q=52.0 size=       1kB time=00:00:04.74 bitrate=   1.2kbits/s speed=0.154x    frame=  304 fps=9.7 q=52.0 size=       1kB time=00:00:04.82 bitrate=   1.2kbits/s speed=0.154x    frame=  306 fps=9.4 q=49.0 size=       1kB time=00:00:04.86 bitrate=   1.2kbits/s speed=0.15x    frame=  314 fps=9.5 q=53.0 size=    2842kB time=00:00:05.02 bitrate=4636.9kbits/s speed=0.152x    frame=  319 fps=9.5 q=53.0 size=    2842kB time=00:00:05.12 bitrate=4546.3kbits/s speed=0.153x    frame=  325 fps=9.5 q=53.0 size=    2842kB time=00:00:05.24 bitrate=4442.2kbits/s speed=0.153x    frame=  332 fps=9.6 q=53.0 size=    2842kB time=00:00:05.38 bitrate=4326.7kbits/s speed=0.155x    frame=  336 fps=9.5 q=53.0 size=    2842kB time=00:00:05.46 bitrate=4263.3kbits/s speed=0.154x    frame=  342 fps=9.5 q=53.0 size=    2842kB time=00:00:05.58 bitrate=4171.6kbits/s speed=0.155x    frame=  347 fps=9.5 q=53.0 size=    2842kB time=00:00:05.68 bitrate=4098.2kbits/s speed=0.155x    frame=  353 fps=9.5 q=53.0 size=    2842kB time=00:00:05.80 bitrate=4013.4kbits/s speed=0.156x    frame=  359 fps=9.5 q=53.0 size=    2842kB time=00:00:05.92 bitrate=3932.1kbits/s speed=0.157x    frame=  364 fps=9.5 q=53.0 size=    2842kB time=00:00:06.02 bitrate=3866.8kbits/s speed=0.158x    frame=  369 fps=9.5 q=53.0 size=    2842kB time=00:00:06.12 bitrate=3803.6kbits/s speed=0.158x    frame=  375 fps=9.5 q=53.0 size=    2842kB time=00:00:06.24 bitrate=3730.5kbits/s speed=0.159x    frame=  379 fps=9.5 q=53.0 size=    2842kB time=00:00:06.32 bitrate=3683.2kbits/s speed=0.158x    frame=  385 fps=9.5 q=53.0 size=    2842kB time=00:00:06.44 bitrate=3614.6kbits/s speed=0.159x    frame=  391 fps=9.5 q=53.0 size=    2842kB time=00:00:06.56 bitrate=3548.5kbits/s speed=0.16x    frame=  396 fps=9.5 q=53.0 size=    2842kB time=00:00:06.66 bitrate=3495.2kbits/s speed=0.16x    frame=  401 fps=9.5 q=53.0 size=    2842kB time=00:00:06.76 bitrate=3443.5kbits/s speed=0.161x    frame=  406 fps=9.5 q=53.0 size=    2842kB time=00:00:06.86 bitrate=3393.4kbits/s speed=0.161x    frame=  413 fps=9.5 q=53.0 size=    2842kB time=00:00:07.00 bitrate=3325.5kbits/s speed=0.162x    frame=  418 fps=9.5 q=53.0 size=    2842kB time=00:00:07.10 bitrate=3278.7kbits/s speed=0.162x    frame=  423 fps=9.5 q=53.0 size=    2842kB time=00:00:07.20 bitrate=3233.1kbits/s speed=0.162x    frame=  430 fps=9.5 q=53.0 size=    2842kB time=00:00:07.34 bitrate=3171.5kbits/s speed=0.163x    frame=  437 fps=9.5 q=53.0 size=    2842kB time=00:00:07.48 bitrate=3112.1kbits/s speed=0.163x    frame=  442 fps=9.5 q=53.0 size=    2842kB time=00:00:07.58 bitrate=3071.1kbits/s speed=0.164x    frame=  448 fps=9.6 q=53.0 size=    2842kB time=00:00:07.70 bitrate=3023.2kbits/s speed=0.164x    frame=  453 fps=9.6 q=53.0 size=    2842kB time=00:00:07.80 bitrate=2984.5kbits/s speed=0.165x    frame=  457 fps=9.5 q=53.0 size=    2842kB time=00:00:07.88 bitrate=2954.2kbits/s speed=0.165x    frame=  462 fps=9.5 q=53.0 size=    2842kB time=00:00:07.98 bitrate=2917.2kbits/s speed=0.165x    frame=  469 fps=9.5 q=53.0 size=    2842kB time=00:00:08.12 bitrate=2866.9kbits/s speed=0.165x    frame=  473 fps=9.5 q=53.0 size=    2842kB time=00:00:08.20 bitrate=2838.9kbits/s speed=0.165x    frame=  480 fps=9.6 q=53.0 size=    2842kB time=00:00:08.34 bitrate=2791.2kbits/s speed=0.166x    frame=  486 fps=9.5 q=53.0 size=    2842kB time=00:00:08.46 bitrate=2751.7kbits/s speed=0.166x    frame=  491 fps=9.5 q=53.0 size=    2842kB time=00:00:08.56 bitrate=2719.5kbits/s speed=0.166x    frame=  497 fps=9.6 q=53.0 size=    2842kB time=00:00:08.68 bitrate=2681.9kbits/s speed=0.167x    frame=  500 fps=8.7 q=-1.0 Lsize=    5661kB time=00:00:09.94 bitrate=4665.3kbits/s speed=0.174x    
video:5657kB audio:0kB subtitle:0kB other streams:0kB global headers:0kB muxing overhead: 0.076838%
bench: utime=193.248s
bench: maxrss=2141540kB
[libx264 @ 0x2a9f1c0] frame I:2     Avg QP:41.96  size:165096
[libx264 @ 0x2a9f1c0] frame P:126   Avg QP:50.45  size: 21589
[libx264 @ 0x2a9f1c0] frame B:372   Avg QP:50.80  size:  7370
[libx264 @ 0x2a9f1c0] consecutive B-frames:  0.8%  0.0%  0.0% 99.2%
[libx264 @ 0x2a9f1c0] mb I  I16..4: 40.8% 54.4%  4.8%
[libx264 @ 0x2a9f1c0] mb P  I16..4:  6.6%  1.5%  0.0%  P16..4: 21.9%  1.2%  2.0%  0.0%  0.0%    skip:66.7%
[libx264 @ 0x2a9f1c0] mb B  I16..4:  0.1%  0.0%  0.0%  B16..8: 20.8%  0.2%  0.0%  direct: 0.3%  skip:78.6%  L0:33.2% L1:66.7% BI: 0.1%
[libx264 @ 0x2a9f1c0] final ratefactor: 44.68
[libx264 @ 0x2a9f1c0] 8x8 transform intra:24.5% inter:95.8%
[libx264 @ 0x2a9f1c0] direct mvs  spatial:98.9% temporal:1.1%
[libx264 @ 0x2a9f1c0] coded y,uvDC,uvAC intra: 7.7% 37.2% 4.3% inter: 0.4% 3.4% 0.0%
[libx264 @ 0x2a9f1c0] i16 v,h,dc,p: 50% 24%  7% 19%
[libx264 @ 0x2a9f1c0] i8 v,h,dc,ddl,ddr,vr,hd,vl,hu:  7%  4% 29% 11% 12% 11% 11%  8%  7%
[libx264 @ 0x2a9f1c0] i4 v,h,dc,ddl,ddr,vr,hd,vl,hu:  5%  3%  1% 16% 20% 15% 15% 10% 15%
[libx264 @ 0x2a9f1c0] i8c dc,h,v,p: 75% 11% 10%  3%
[libx264 @ 0x2a9f1c0] Weighted P-Frames: Y:1.6% UV:0.8%
[libx264 @ 0x2a9f1c0] ref P L0: 65.6%  0.7% 19.8%  6.5%  7.3%  0.1%
[libx264 @ 0x2a9f1c0] ref B L0: 89.7%  7.0%  2.4%  0.9%
[libx264 @ 0x2a9f1c0] ref B L1: 97.6%  2.4%
[libx264 @ 0x2a9f1c0] kb/s:4633.63
